<?xml version="1.0" standalone="no"?><!DOCTYPE svg PUBLIC "-//W3C//DTD SVG 1.1//EN" "http://www.w3.org/Graphics/SVG/1.1/DTD/svg11.dtd"><svg t="1669283204654" class="icon" viewBox="0 0 1024 1024" version="1.1" xmlns="http://www.w3.org/2000/svg" p-id="4164" xmlns:xlink="http://www.w3.org/1999/xlink" width="200" height="200"><path d="M512 64.15c-247.52 0-448 200.48-448 448s200.48 448 448 448 448-200.48 448-448-200.51-448-448-448zM422.37 876.6a4.67 4.67 0 0 1-5.6 4.48 381.3 381.3 0 0 1-273.5-273.5A22.52 22.52 0 0 1 165 579.35h100.57a156.69 156.69 0 0 1 156.8 156.8z m-56-342A145.65 145.65 0 0 1 456 400.15H179.56c-15.9 0-26.66-16.35-20.83-31.14C215.4 229.69 352.26 131.35 512 131.35S808.55 229.69 865.22 369c5.82 14.78-4.93 31.14-20.83 31.14H568a145.6 145.6 0 1 1-201.6 134.4z m246.85 346.48a4.67 4.67 0 0 1-5.6-4.48V736.15a156.69 156.69 0 0 1 156.8-156.8H865a22.52 22.52 0 0 1 21.73 28.22 381.3 381.3 0 0 1-273.51 273.51z" fill="#DD4238" p-id="4165"></path><path d="M512 669c-74.11 0-134.4-60.29-134.4-134.4S437.89 400.2 512 400.2s134.4 60.29 134.4 134.4S586.09 669 512 669z m0-201.6a67.2 67.2 0 1 0 67.2 67.2 67.27 67.27 0 0 0-67.2-67.25z" fill="#3E6493" p-id="4166"></path></svg>